<svg width="47" height="42" viewBox="0 0 47 42" fill="none" xmlns="http://www.w3.org/2000/svg">
<g filter="url(#filter0_d_1692_4243)">
<path d="M25.2623 33.28H8.31754C8.02825 33.2798 7.75087 33.1648 7.54626 32.9603C7.34165 32.7558 7.22652 32.4785 7.22613 32.1892V29.1053C7.22488 27.9827 7.57774 26.8883 8.23451 25.9779C8.89127 25.0674 9.81847 24.3873 10.8841 24.0344L17.3309 21.8833C19.2136 21.2578 21.248 21.2574 23.131 21.8821L25.2276 22.5813C25.3808 22.6291 25.5466 22.6148 25.6894 22.5417C25.8322 22.4685 25.9406 22.3423 25.9914 22.1901C26.0422 22.0379 26.0313 21.8719 25.961 21.7276C25.8907 21.5834 25.7667 21.4725 25.6155 21.4187L23.5166 20.7182C25.8679 19.5346 28.027 16.8301 27.9402 13.7069C27.9378 11.6636 27.1251 9.70468 25.6803 8.25986C24.2355 6.81505 22.2766 6.00233 20.2333 6C11.7316 6.2711 9.79257 17.1242 16.9454 20.7193L10.4968 22.8712C9.18672 23.3052 8.04692 24.1413 7.23957 25.2606C6.43221 26.3798 5.99845 27.7252 6 29.1053V32.1892C6.00082 32.8035 6.24527 33.3925 6.67973 33.8268C7.11419 34.2612 7.7032 34.5055 8.31754 34.5061H25.2623C25.4229 34.5031 25.5759 34.4371 25.6884 34.3225C25.8009 34.2079 25.8639 34.0537 25.8639 33.8931C25.8639 33.7325 25.8009 33.5783 25.6884 33.4636C25.5759 33.349 25.4229 33.283 25.2623 33.28ZM13.7525 13.7069C13.7544 11.9887 14.4378 10.3414 15.6528 9.12644C16.8678 7.91147 18.5151 7.22805 20.2333 7.22612C28.8311 7.58205 28.8286 19.8332 20.2333 20.1878C18.515 20.1859 16.8677 19.5025 15.6528 18.2875C14.4378 17.0725 13.7544 15.4252 13.7525 13.7069Z" fill="white" stroke="white" stroke-width="0.935844"/>
<path d="M32.7007 20.4199C30.6787 20.4221 28.7401 21.2263 27.3104 22.6561C25.8806 24.0858 25.0764 26.0244 25.0742 28.0464C25.4927 38.164 39.9103 38.1611 40.3272 28.0463C40.325 26.0243 39.5208 24.0858 38.091 22.656C36.6612 21.2263 34.7227 20.4221 32.7007 20.4199ZM32.7007 34.4468C31.0036 34.4455 29.3763 33.7708 28.1763 32.5708C26.9763 31.3708 26.3016 29.7435 26.3003 28.0464C26.6537 19.5556 38.749 19.5581 39.1011 28.0464C39.0998 29.7435 38.4251 31.3708 37.2251 32.5708C36.025 33.7708 34.3978 34.4455 32.7007 34.4468Z" fill="white" stroke="white" stroke-width="0.935844"/>
<path d="M33.6552 31.4164H33.3115V26.8582C33.3115 26.7777 33.2957 26.698 33.2649 26.6235C33.2341 26.5491 33.189 26.4815 33.132 26.4246C33.0751 26.3676 33.0075 26.3225 32.9331 26.2917C32.8587 26.2609 32.7789 26.2451 32.6984 26.2451H31.7422C31.5816 26.2482 31.4286 26.3141 31.3161 26.4288C31.2036 26.5434 31.1406 26.6976 31.1406 26.8582C31.1406 27.0189 31.2037 27.1731 31.3162 27.2877C31.4286 27.4024 31.5816 27.4683 31.7422 27.4713H32.0853V31.4164H31.7422C31.5817 31.4196 31.4288 31.4855 31.3163 31.6002C31.2039 31.7148 31.1409 31.869 31.1409 32.0296C31.1409 32.1901 31.2039 32.3443 31.3164 32.4589C31.4288 32.5736 31.5817 32.6395 31.7422 32.6427H33.6552C33.8158 32.6396 33.9687 32.5737 34.0812 32.459C34.1937 32.3444 34.2567 32.1902 34.2567 32.0295C34.2567 31.8689 34.1937 31.7147 34.0812 31.6001C33.9687 31.4854 33.8158 31.4195 33.6552 31.4164Z" fill="white" stroke="white" stroke-width="0.935844"/>
<path d="M33.4731 24.377C33.4694 24.1323 33.3696 23.8988 33.1953 23.7271C33.0209 23.5553 32.786 23.459 32.5412 23.459C32.2965 23.459 32.0616 23.5553 31.8872 23.727C31.7128 23.8988 31.613 24.1323 31.6094 24.377C31.613 24.6217 31.7128 24.8552 31.8872 25.027C32.0615 25.1987 32.2965 25.295 32.5412 25.295C32.786 25.295 33.0209 25.1987 33.1953 25.027C33.3696 24.8552 33.4694 24.6218 33.4731 24.377Z" fill="white" stroke="white" stroke-width="0.935844"/>
</g>
<defs>
<filter id="filter0_d_1692_4243" x="0.103355" y="0.104331" width="46.1214" height="41.4251" filterUnits="userSpaceOnUse" color-interpolation-filters="sRGB">
<feFlood flood-opacity="0" result="BackgroundImageFix"/>
<feColorMatrix in="SourceAlpha" type="matrix" values="0 0 0 0 0 0 0 0 0 0 0 0 0 0 0 0 0 0 127 0" result="hardAlpha"/>
<feOffset/>
<feGaussianBlur stdDeviation="2.71395"/>
<feColorMatrix type="matrix" values="0 0 0 0 0 0 0 0 0 0 0 0 0 0 0 0 0 0 1 0"/>
<feBlend mode="normal" in2="BackgroundImageFix" result="effect1_dropShadow_1692_4243"/>
<feBlend mode="normal" in="SourceGraphic" in2="effect1_dropShadow_1692_4243" result="shape"/>
</filter>
</defs>
</svg>
