<svg width="29" height="31" viewBox="0 0 29 31" fill="none" xmlns="http://www.w3.org/2000/svg">
<g filter="url(#filter0_d_1695_4164)">
<path d="M23.4427 19.0311L18.8382 16.9034L18.8255 16.8973C18.5864 16.7919 18.3257 16.7496 18.0668 16.7742C17.8079 16.7988 17.5591 16.8897 17.3428 17.0384C17.3173 17.0558 17.2928 17.0746 17.2695 17.0949L14.8905 19.1864C13.3833 18.4314 11.8273 16.8389 11.0952 15.3048L13.1263 12.8141C13.1458 12.7889 13.1644 12.7637 13.182 12.7365C13.3231 12.5141 13.4088 12.2591 13.4313 11.9942C13.4538 11.7294 13.4125 11.4629 13.311 11.2186V11.2065L11.2418 6.44997C11.1077 6.13072 10.877 5.86477 10.5842 5.69183C10.2915 5.51889 9.9523 5.44824 9.61739 5.49041C8.29298 5.67013 7.0773 6.34088 6.1974 7.37737C5.3175 8.41387 4.83355 9.74523 4.83595 11.1228C4.83595 19.1259 11.15 25.6372 18.9105 25.6372C20.2463 25.6397 21.5374 25.1406 22.5424 24.2332C23.5475 23.3258 24.198 22.0721 24.3722 20.7063C24.4132 20.3611 24.3448 20.0114 24.1773 19.7095C24.0098 19.4076 23.7521 19.1696 23.4427 19.0311ZM18.9105 24.0245C15.5936 24.0208 12.4135 22.6603 10.0681 20.2415C7.72266 17.8228 6.40341 14.5434 6.39979 11.1228C6.39611 10.1385 6.73997 9.18653 7.36716 8.4446C7.99434 7.70266 8.86196 7.22152 9.80798 7.09102C9.8076 7.09504 9.8076 7.0991 9.80798 7.10312L11.8605 11.8405L9.84024 14.3341C9.81973 14.3584 9.8011 14.3844 9.78452 14.4117C9.63744 14.6445 9.55116 14.9125 9.53403 15.1897C9.51691 15.467 9.56952 15.7441 9.68678 15.9942C10.5723 17.8619 12.3971 19.7296 14.2278 20.6418C14.4721 20.7616 14.7424 20.814 15.0122 20.7939C15.282 20.7737 15.5422 20.6817 15.7672 20.5269C15.7923 20.5095 15.8164 20.4906 15.8395 20.4705L18.2156 18.38L22.8094 20.5017C22.8094 20.5017 22.8172 20.5017 22.8201 20.5017C22.6951 21.4787 22.2293 22.3752 21.5097 23.0236C20.7901 23.672 19.8661 24.0278 18.9105 24.0245Z" fill="white"/>
</g>
<defs>
<filter id="filter0_d_1695_4164" x="0.300799" y="0.943377" width="28.6172" height="29.2285" filterUnits="userSpaceOnUse" color-interpolation-filters="sRGB">
<feFlood flood-opacity="0" result="BackgroundImageFix"/>
<feColorMatrix in="SourceAlpha" type="matrix" values="0 0 0 0 0 0 0 0 0 0 0 0 0 0 0 0 0 0 127 0" result="hardAlpha"/>
<feOffset/>
<feGaussianBlur stdDeviation="2.26757"/>
<feColorMatrix type="matrix" values="0 0 0 0 0 0 0 0 0 0 0 0 0 0 0 0 0 0 1 0"/>
<feBlend mode="normal" in2="BackgroundImageFix" result="effect1_dropShadow_1695_4164"/>
<feBlend mode="normal" in="SourceGraphic" in2="effect1_dropShadow_1695_4164" result="shape"/>
</filter>
</defs>
</svg>
